<mxfile host="www.draw.io" modified="2019-11-07T12:31:51.161Z" agent="Mozilla/5.0 (Macintosh; Intel Mac OS X 10_13_6) AppleWebKit/537.36 (KHTML, like Gecko) Chrome/78.0.3904.87 Safari/537.36" etag="4kv1O_-slY5tchl6NUKo" version="12.2.2" type="github" pages="1">
  <diagram id="nOVnHYVLfnTtghSCXkoL" name="Page-1">
    <mxGraphModel dx="786" dy="523" grid="1" gridSize="10" guides="1" tooltips="1" connect="1" arrows="1" fold="1" page="1" pageScale="1" pageWidth="827" pageHeight="1169" math="0" shadow="0">
      <root>
        <mxCell id="0"/>
        <mxCell id="1" parent="0"/>
        <mxCell id="m3K4q8sQfVAfD3ZwlftY-1" value="&lt;span style=&quot;text-align: left&quot;&gt;应收款&lt;/span&gt;" style="shape=umlFrame;whiteSpace=wrap;html=1;" vertex="1" parent="1">
          <mxGeometry x="10" y="710" width="610" height="190" as="geometry"/>
        </mxCell>
        <mxCell id="m3K4q8sQfVAfD3ZwlftY-2" value="&lt;span style=&quot;text-align: left&quot;&gt;合同&lt;/span&gt;" style="shape=umlFrame;whiteSpace=wrap;html=1;" vertex="1" parent="1">
          <mxGeometry x="10" y="610" width="610" height="100" as="geometry"/>
        </mxCell>
        <mxCell id="m3K4q8sQfVAfD3ZwlftY-3" value="&lt;span style=&quot;text-align: left&quot;&gt;订单&lt;/span&gt;" style="shape=umlFrame;whiteSpace=wrap;html=1;" vertex="1" parent="1">
          <mxGeometry x="10" y="510" width="610" height="100" as="geometry"/>
        </mxCell>
        <mxCell id="m3K4q8sQfVAfD3ZwlftY-4" value="&lt;span style=&quot;text-align: left&quot;&gt;预订&lt;/span&gt;" style="shape=umlFrame;whiteSpace=wrap;html=1;" vertex="1" parent="1">
          <mxGeometry x="10" y="320" width="610" height="190" as="geometry"/>
        </mxCell>
        <mxCell id="m3K4q8sQfVAfD3ZwlftY-5" value="交接" style="shape=umlFrame;whiteSpace=wrap;html=1;" vertex="1" parent="1">
          <mxGeometry x="66" y="975" width="494" height="257" as="geometry"/>
        </mxCell>
        <mxCell id="m3K4q8sQfVAfD3ZwlftY-6" value="任务书" style="shape=umlFrame;whiteSpace=wrap;html=1;" vertex="1" parent="1">
          <mxGeometry x="66" y="1232" width="494" height="308" as="geometry"/>
        </mxCell>
        <mxCell id="m3K4q8sQfVAfD3ZwlftY-7" value="" style="edgeStyle=orthogonalEdgeStyle;rounded=0;orthogonalLoop=1;jettySize=auto;html=1;" edge="1" parent="1" source="m3K4q8sQfVAfD3ZwlftY-8" target="m3K4q8sQfVAfD3ZwlftY-9">
          <mxGeometry relative="1" as="geometry"/>
        </mxCell>
        <mxCell id="m3K4q8sQfVAfD3ZwlftY-8" value="添加新客户&lt;br&gt;(仅限展会客户)" style="rounded=1;whiteSpace=wrap;html=1;absoluteArcSize=1;arcSize=14;strokeWidth=2;" vertex="1" parent="1">
          <mxGeometry x="20" y="20" width="110" height="50" as="geometry"/>
        </mxCell>
        <mxCell id="m3K4q8sQfVAfD3ZwlftY-9" value="信息维护" style="rounded=1;whiteSpace=wrap;html=1;absoluteArcSize=1;arcSize=14;strokeWidth=2;" vertex="1" parent="1">
          <mxGeometry x="350" y="20" width="110" height="50" as="geometry"/>
        </mxCell>
        <mxCell id="m3K4q8sQfVAfD3ZwlftY-10" value="" style="edgeStyle=orthogonalEdgeStyle;rounded=0;orthogonalLoop=1;jettySize=auto;html=1;entryX=0.5;entryY=1;entryDx=0;entryDy=0;" edge="1" parent="1" source="m3K4q8sQfVAfD3ZwlftY-11" target="m3K4q8sQfVAfD3ZwlftY-9">
          <mxGeometry relative="1" as="geometry">
            <mxPoint x="210" y="115" as="targetPoint"/>
          </mxGeometry>
        </mxCell>
        <mxCell id="m3K4q8sQfVAfD3ZwlftY-11" value="添加潜在客户" style="rounded=1;whiteSpace=wrap;html=1;absoluteArcSize=1;arcSize=14;strokeWidth=2;" vertex="1" parent="1">
          <mxGeometry x="20" y="230" width="110" height="50" as="geometry"/>
        </mxCell>
        <mxCell id="m3K4q8sQfVAfD3ZwlftY-12" value="" style="edgeStyle=orthogonalEdgeStyle;rounded=0;orthogonalLoop=1;jettySize=auto;html=1;" edge="1" parent="1" source="m3K4q8sQfVAfD3ZwlftY-13" target="m3K4q8sQfVAfD3ZwlftY-21">
          <mxGeometry relative="1" as="geometry"/>
        </mxCell>
        <mxCell id="m3K4q8sQfVAfD3ZwlftY-13" value="添加场地代理商" style="rounded=1;whiteSpace=wrap;html=1;absoluteArcSize=1;arcSize=14;strokeWidth=2;" vertex="1" parent="1">
          <mxGeometry x="20" y="160" width="110" height="50" as="geometry"/>
        </mxCell>
        <mxCell id="m3K4q8sQfVAfD3ZwlftY-14" value="" style="edgeStyle=orthogonalEdgeStyle;rounded=0;orthogonalLoop=1;jettySize=auto;html=1;" edge="1" parent="1" source="m3K4q8sQfVAfD3ZwlftY-15" target="m3K4q8sQfVAfD3ZwlftY-17">
          <mxGeometry relative="1" as="geometry"/>
        </mxCell>
        <mxCell id="m3K4q8sQfVAfD3ZwlftY-15" value="添加新客户审批" style="rounded=1;whiteSpace=wrap;html=1;absoluteArcSize=1;arcSize=14;strokeWidth=2;" vertex="1" parent="1">
          <mxGeometry x="20" y="90" width="110" height="50" as="geometry"/>
        </mxCell>
        <mxCell id="m3K4q8sQfVAfD3ZwlftY-16" value="" style="edgeStyle=orthogonalEdgeStyle;rounded=0;orthogonalLoop=1;jettySize=auto;html=1;" edge="1" parent="1" source="m3K4q8sQfVAfD3ZwlftY-17" target="m3K4q8sQfVAfD3ZwlftY-19">
          <mxGeometry relative="1" as="geometry"/>
        </mxCell>
        <mxCell id="m3K4q8sQfVAfD3ZwlftY-17" value="部门经理审批" style="rounded=1;whiteSpace=wrap;html=1;absoluteArcSize=1;arcSize=14;strokeWidth=2;" vertex="1" parent="1">
          <mxGeometry x="165" y="90" width="85" height="50" as="geometry"/>
        </mxCell>
        <mxCell id="m3K4q8sQfVAfD3ZwlftY-18" style="edgeStyle=orthogonalEdgeStyle;rounded=0;orthogonalLoop=1;jettySize=auto;html=1;entryX=0.5;entryY=1;entryDx=0;entryDy=0;exitX=1;exitY=0.5;exitDx=0;exitDy=0;" edge="1" parent="1" source="m3K4q8sQfVAfD3ZwlftY-19" target="m3K4q8sQfVAfD3ZwlftY-9">
          <mxGeometry relative="1" as="geometry"/>
        </mxCell>
        <mxCell id="m3K4q8sQfVAfD3ZwlftY-19" value="总监审批" style="rounded=1;whiteSpace=wrap;html=1;absoluteArcSize=1;arcSize=14;strokeWidth=2;" vertex="1" parent="1">
          <mxGeometry x="285" y="90" width="85" height="50" as="geometry"/>
        </mxCell>
        <mxCell id="m3K4q8sQfVAfD3ZwlftY-20" value="" style="edgeStyle=orthogonalEdgeStyle;rounded=0;orthogonalLoop=1;jettySize=auto;html=1;" edge="1" parent="1" source="m3K4q8sQfVAfD3ZwlftY-21" target="m3K4q8sQfVAfD3ZwlftY-102">
          <mxGeometry relative="1" as="geometry"/>
        </mxCell>
        <mxCell id="m3K4q8sQfVAfD3ZwlftY-21" value="部门经理审批" style="rounded=1;whiteSpace=wrap;html=1;absoluteArcSize=1;arcSize=14;strokeWidth=2;" vertex="1" parent="1">
          <mxGeometry x="165" y="160" width="85" height="50" as="geometry"/>
        </mxCell>
        <mxCell id="m3K4q8sQfVAfD3ZwlftY-22" value="" style="edgeStyle=orthogonalEdgeStyle;rounded=0;orthogonalLoop=1;jettySize=auto;html=1;entryX=0;entryY=0.5;entryDx=0;entryDy=0;entryPerimeter=0;" edge="1" parent="1" source="m3K4q8sQfVAfD3ZwlftY-23" target="m3K4q8sQfVAfD3ZwlftY-44">
          <mxGeometry relative="1" as="geometry"/>
        </mxCell>
        <mxCell id="m3K4q8sQfVAfD3ZwlftY-23" value="会议预定" style="rounded=1;whiteSpace=wrap;html=1;absoluteArcSize=1;arcSize=14;strokeWidth=2;" vertex="1" parent="1">
          <mxGeometry x="20" y="360" width="110" height="50" as="geometry"/>
        </mxCell>
        <mxCell id="m3K4q8sQfVAfD3ZwlftY-24" value="" style="edgeStyle=orthogonalEdgeStyle;rounded=0;orthogonalLoop=1;jettySize=auto;html=1;" edge="1" parent="1" source="m3K4q8sQfVAfD3ZwlftY-25" target="m3K4q8sQfVAfD3ZwlftY-27">
          <mxGeometry relative="1" as="geometry"/>
        </mxCell>
        <mxCell id="m3K4q8sQfVAfD3ZwlftY-25" value="生成会议" style="rounded=1;whiteSpace=wrap;html=1;absoluteArcSize=1;arcSize=14;strokeWidth=2;" vertex="1" parent="1">
          <mxGeometry x="480" y="360" width="110" height="50" as="geometry"/>
        </mxCell>
        <mxCell id="m3K4q8sQfVAfD3ZwlftY-26" value="" style="edgeStyle=orthogonalEdgeStyle;rounded=0;orthogonalLoop=1;jettySize=auto;html=1;" edge="1" parent="1" source="m3K4q8sQfVAfD3ZwlftY-27" target="m3K4q8sQfVAfD3ZwlftY-30">
          <mxGeometry relative="1" as="geometry"/>
        </mxCell>
        <mxCell id="m3K4q8sQfVAfD3ZwlftY-27" value="创建会议订单&lt;br&gt;[订单与订单明细]" style="rounded=1;whiteSpace=wrap;html=1;absoluteArcSize=1;arcSize=14;strokeWidth=2;" vertex="1" parent="1">
          <mxGeometry x="480" y="548" width="110" height="50" as="geometry"/>
        </mxCell>
        <mxCell id="m3K4q8sQfVAfD3ZwlftY-28" value="" style="edgeStyle=orthogonalEdgeStyle;rounded=0;orthogonalLoop=1;jettySize=auto;html=1;exitX=0.5;exitY=1;exitDx=0;exitDy=0;" edge="1" parent="1" source="m3K4q8sQfVAfD3ZwlftY-32" target="m3K4q8sQfVAfD3ZwlftY-34">
          <mxGeometry relative="1" as="geometry"/>
        </mxCell>
        <mxCell id="m3K4q8sQfVAfD3ZwlftY-29" value="" style="edgeStyle=orthogonalEdgeStyle;rounded=0;orthogonalLoop=1;jettySize=auto;html=1;" edge="1" parent="1" source="m3K4q8sQfVAfD3ZwlftY-30" target="m3K4q8sQfVAfD3ZwlftY-32">
          <mxGeometry relative="1" as="geometry"/>
        </mxCell>
        <mxCell id="m3K4q8sQfVAfD3ZwlftY-30" value="会议活动报价&lt;br&gt;[&lt;span style=&quot;color: rgb(34 , 34 , 34) ; font-family: &amp;#34;menlo&amp;#34; , monospace ; font-size: 11px ; text-align: left ; white-space: pre-wrap ; background-color: rgb(255 , 255 , 255)&quot;&gt;导出服务单&lt;/span&gt;]" style="rounded=1;whiteSpace=wrap;html=1;absoluteArcSize=1;arcSize=14;strokeWidth=2;" vertex="1" parent="1">
          <mxGeometry x="251.5" y="548" width="110" height="50" as="geometry"/>
        </mxCell>
        <mxCell id="m3K4q8sQfVAfD3ZwlftY-31" style="edgeStyle=orthogonalEdgeStyle;rounded=0;orthogonalLoop=1;jettySize=auto;html=1;entryX=0.5;entryY=0;entryDx=0;entryDy=0;" edge="1" parent="1" source="m3K4q8sQfVAfD3ZwlftY-34" target="m3K4q8sQfVAfD3ZwlftY-105">
          <mxGeometry relative="1" as="geometry"/>
        </mxCell>
        <mxCell id="m3K4q8sQfVAfD3ZwlftY-32" value="生成确认单" style="rounded=1;whiteSpace=wrap;html=1;absoluteArcSize=1;arcSize=14;strokeWidth=2;" vertex="1" parent="1">
          <mxGeometry x="22.5" y="548" width="110" height="50" as="geometry"/>
        </mxCell>
        <mxCell id="m3K4q8sQfVAfD3ZwlftY-33" value="" style="edgeStyle=orthogonalEdgeStyle;rounded=0;orthogonalLoop=1;jettySize=auto;html=1;" edge="1" parent="1" source="m3K4q8sQfVAfD3ZwlftY-34" target="m3K4q8sQfVAfD3ZwlftY-39">
          <mxGeometry relative="1" as="geometry">
            <mxPoint x="725" y="680" as="sourcePoint"/>
          </mxGeometry>
        </mxCell>
        <mxCell id="m3K4q8sQfVAfD3ZwlftY-34" value="生成合同&lt;br&gt;[可选]" style="rounded=1;whiteSpace=wrap;html=1;absoluteArcSize=1;arcSize=14;strokeWidth=2;" vertex="1" parent="1">
          <mxGeometry x="22.5" y="647" width="110" height="50" as="geometry"/>
        </mxCell>
        <mxCell id="m3K4q8sQfVAfD3ZwlftY-35" value="" style="edgeStyle=orthogonalEdgeStyle;rounded=0;orthogonalLoop=1;jettySize=auto;html=1;entryX=0;entryY=0.5;entryDx=0;entryDy=0;exitX=0.5;exitY=1;exitDx=0;exitDy=0;" edge="1" parent="1" source="m3K4q8sQfVAfD3ZwlftY-105" target="m3K4q8sQfVAfD3ZwlftY-37">
          <mxGeometry relative="1" as="geometry"/>
        </mxCell>
        <mxCell id="m3K4q8sQfVAfD3ZwlftY-36" value="无" style="text;html=1;resizable=0;points=[];align=center;verticalAlign=middle;labelBackgroundColor=#ffffff;" vertex="1" connectable="0" parent="m3K4q8sQfVAfD3ZwlftY-35">
          <mxGeometry x="0.021" y="-1" relative="1" as="geometry">
            <mxPoint as="offset"/>
          </mxGeometry>
        </mxCell>
        <mxCell id="m3K4q8sQfVAfD3ZwlftY-37" value="生成应收款" style="rounded=1;whiteSpace=wrap;html=1;absoluteArcSize=1;arcSize=14;strokeWidth=2;" vertex="1" parent="1">
          <mxGeometry x="480" y="840" width="110" height="50" as="geometry"/>
        </mxCell>
        <mxCell id="m3K4q8sQfVAfD3ZwlftY-38" value="" style="edgeStyle=orthogonalEdgeStyle;rounded=0;orthogonalLoop=1;jettySize=auto;html=1;" edge="1" parent="1" source="m3K4q8sQfVAfD3ZwlftY-39" target="m3K4q8sQfVAfD3ZwlftY-69">
          <mxGeometry relative="1" as="geometry"/>
        </mxCell>
        <mxCell id="m3K4q8sQfVAfD3ZwlftY-39" value="生成呈批件&lt;br&gt;后续由OA审核" style="rounded=1;whiteSpace=wrap;html=1;absoluteArcSize=1;arcSize=14;strokeWidth=2;" vertex="1" parent="1">
          <mxGeometry x="251.5" y="647" width="110" height="50" as="geometry"/>
        </mxCell>
        <mxCell id="m3K4q8sQfVAfD3ZwlftY-40" style="edgeStyle=orthogonalEdgeStyle;rounded=0;orthogonalLoop=1;jettySize=auto;html=1;entryX=0.5;entryY=0;entryDx=0;entryDy=0;entryPerimeter=0;" edge="1" parent="1" source="m3K4q8sQfVAfD3ZwlftY-44" target="m3K4q8sQfVAfD3ZwlftY-45">
          <mxGeometry relative="1" as="geometry"/>
        </mxCell>
        <mxCell id="m3K4q8sQfVAfD3ZwlftY-41" value="不通过" style="text;html=1;resizable=0;points=[];align=center;verticalAlign=middle;labelBackgroundColor=#ffffff;" vertex="1" connectable="0" parent="m3K4q8sQfVAfD3ZwlftY-40">
          <mxGeometry x="0.3182" y="-3" relative="1" as="geometry">
            <mxPoint x="-1" y="-13" as="offset"/>
          </mxGeometry>
        </mxCell>
        <mxCell id="m3K4q8sQfVAfD3ZwlftY-42" style="edgeStyle=orthogonalEdgeStyle;rounded=0;orthogonalLoop=1;jettySize=auto;html=1;entryX=0;entryY=0.5;entryDx=0;entryDy=0;" edge="1" parent="1" source="m3K4q8sQfVAfD3ZwlftY-44" target="m3K4q8sQfVAfD3ZwlftY-25">
          <mxGeometry relative="1" as="geometry"/>
        </mxCell>
        <mxCell id="m3K4q8sQfVAfD3ZwlftY-43" value="通过" style="text;html=1;resizable=0;points=[];align=center;verticalAlign=middle;labelBackgroundColor=#ffffff;" vertex="1" connectable="0" parent="m3K4q8sQfVAfD3ZwlftY-42">
          <mxGeometry x="-0.4133" y="2" relative="1" as="geometry">
            <mxPoint as="offset"/>
          </mxGeometry>
        </mxCell>
        <mxCell id="m3K4q8sQfVAfD3ZwlftY-44" value="&lt;span style=&quot;white-space: normal&quot;&gt;会议审核&lt;/span&gt;&lt;br style=&quot;white-space: normal&quot;&gt;&lt;span style=&quot;white-space: normal&quot;&gt;(会议部经理)&lt;/span&gt;" style="strokeWidth=2;html=1;shape=mxgraph.flowchart.decision;whiteSpace=wrap;" vertex="1" parent="1">
          <mxGeometry x="259" y="345" width="80" height="80" as="geometry"/>
        </mxCell>
        <mxCell id="m3K4q8sQfVAfD3ZwlftY-45" value="结束" style="strokeWidth=2;html=1;shape=mxgraph.flowchart.terminator;whiteSpace=wrap;" vertex="1" parent="1">
          <mxGeometry x="259" y="460" width="80" height="40" as="geometry"/>
        </mxCell>
        <mxCell id="m3K4q8sQfVAfD3ZwlftY-46" value="" style="edgeStyle=orthogonalEdgeStyle;rounded=0;orthogonalLoop=1;jettySize=auto;html=1;exitX=0.5;exitY=1;exitDx=0;exitDy=0;exitPerimeter=0;" edge="1" parent="1" source="m3K4q8sQfVAfD3ZwlftY-67" target="m3K4q8sQfVAfD3ZwlftY-52">
          <mxGeometry relative="1" as="geometry"/>
        </mxCell>
        <mxCell id="m3K4q8sQfVAfD3ZwlftY-47" value="通过" style="text;html=1;resizable=0;points=[];align=center;verticalAlign=middle;labelBackgroundColor=#ffffff;" vertex="1" connectable="0" parent="m3K4q8sQfVAfD3ZwlftY-46">
          <mxGeometry x="-0.1429" y="-1" relative="1" as="geometry">
            <mxPoint as="offset"/>
          </mxGeometry>
        </mxCell>
        <mxCell id="m3K4q8sQfVAfD3ZwlftY-48" style="edgeStyle=orthogonalEdgeStyle;rounded=0;orthogonalLoop=1;jettySize=auto;html=1;entryX=0.5;entryY=0;entryDx=0;entryDy=0;entryPerimeter=0;" edge="1" parent="1" source="m3K4q8sQfVAfD3ZwlftY-49" target="m3K4q8sQfVAfD3ZwlftY-67">
          <mxGeometry relative="1" as="geometry"/>
        </mxCell>
        <mxCell id="m3K4q8sQfVAfD3ZwlftY-49" value="添加交接单" style="rounded=1;whiteSpace=wrap;html=1;absoluteArcSize=1;arcSize=14;strokeWidth=2;" vertex="1" parent="1">
          <mxGeometry x="131" y="1000" width="110" height="30" as="geometry"/>
        </mxCell>
        <mxCell id="m3K4q8sQfVAfD3ZwlftY-50" value="" style="edgeStyle=orthogonalEdgeStyle;rounded=0;orthogonalLoop=1;jettySize=auto;html=1;exitX=0.5;exitY=1;exitDx=0;exitDy=0;" edge="1" parent="1" source="m3K4q8sQfVAfD3ZwlftY-52" target="m3K4q8sQfVAfD3ZwlftY-54">
          <mxGeometry relative="1" as="geometry"/>
        </mxCell>
        <mxCell id="m3K4q8sQfVAfD3ZwlftY-51" value="" style="edgeStyle=orthogonalEdgeStyle;rounded=0;orthogonalLoop=1;jettySize=auto;html=1;" edge="1" parent="1" source="m3K4q8sQfVAfD3ZwlftY-52" target="m3K4q8sQfVAfD3ZwlftY-111">
          <mxGeometry relative="1" as="geometry"/>
        </mxCell>
        <mxCell id="m3K4q8sQfVAfD3ZwlftY-52" value="确定接收&lt;font color=&quot;#ff3333&quot;&gt;&lt;br&gt;&lt;/font&gt;" style="rounded=1;whiteSpace=wrap;html=1;absoluteArcSize=1;arcSize=14;strokeWidth=2;" vertex="1" parent="1">
          <mxGeometry x="131" y="1172.5" width="110" height="40" as="geometry"/>
        </mxCell>
        <mxCell id="m3K4q8sQfVAfD3ZwlftY-53" value="" style="edgeStyle=orthogonalEdgeStyle;rounded=0;orthogonalLoop=1;jettySize=auto;html=1;" edge="1" parent="1" source="m3K4q8sQfVAfD3ZwlftY-54" target="m3K4q8sQfVAfD3ZwlftY-56">
          <mxGeometry relative="1" as="geometry"/>
        </mxCell>
        <mxCell id="m3K4q8sQfVAfD3ZwlftY-54" value="补充信息" style="rounded=1;whiteSpace=wrap;html=1;absoluteArcSize=1;arcSize=14;strokeWidth=2;" vertex="1" parent="1">
          <mxGeometry x="131" y="1252.5" width="110" height="30" as="geometry"/>
        </mxCell>
        <mxCell id="m3K4q8sQfVAfD3ZwlftY-55" value="" style="edgeStyle=orthogonalEdgeStyle;rounded=0;orthogonalLoop=1;jettySize=auto;html=1;" edge="1" parent="1" source="m3K4q8sQfVAfD3ZwlftY-56" target="m3K4q8sQfVAfD3ZwlftY-58">
          <mxGeometry relative="1" as="geometry"/>
        </mxCell>
        <mxCell id="m3K4q8sQfVAfD3ZwlftY-56" value="编辑任务书环节" style="rounded=1;whiteSpace=wrap;html=1;absoluteArcSize=1;arcSize=14;strokeWidth=2;" vertex="1" parent="1">
          <mxGeometry x="131" y="1310" width="110" height="30" as="geometry"/>
        </mxCell>
        <mxCell id="m3K4q8sQfVAfD3ZwlftY-57" value="" style="edgeStyle=orthogonalEdgeStyle;rounded=0;orthogonalLoop=1;jettySize=auto;html=1;" edge="1" parent="1" source="m3K4q8sQfVAfD3ZwlftY-58" target="m3K4q8sQfVAfD3ZwlftY-61">
          <mxGeometry relative="1" as="geometry"/>
        </mxCell>
        <mxCell id="m3K4q8sQfVAfD3ZwlftY-58" value="编辑环节任务" style="rounded=1;whiteSpace=wrap;html=1;absoluteArcSize=1;arcSize=14;strokeWidth=2;" vertex="1" parent="1">
          <mxGeometry x="131" y="1370" width="110" height="30" as="geometry"/>
        </mxCell>
        <mxCell id="m3K4q8sQfVAfD3ZwlftY-59" value="" style="edgeStyle=orthogonalEdgeStyle;rounded=0;orthogonalLoop=1;jettySize=auto;html=1;entryX=0.5;entryY=1;entryDx=0;entryDy=0;" edge="1" parent="1" source="m3K4q8sQfVAfD3ZwlftY-61" target="m3K4q8sQfVAfD3ZwlftY-64">
          <mxGeometry relative="1" as="geometry">
            <mxPoint x="550.5" y="1522.5" as="targetPoint"/>
          </mxGeometry>
        </mxCell>
        <mxCell id="m3K4q8sQfVAfD3ZwlftY-60" value="" style="edgeStyle=orthogonalEdgeStyle;rounded=0;orthogonalLoop=1;jettySize=auto;html=1;" edge="1" parent="1" source="m3K4q8sQfVAfD3ZwlftY-61" target="m3K4q8sQfVAfD3ZwlftY-62">
          <mxGeometry relative="1" as="geometry"/>
        </mxCell>
        <mxCell id="m3K4q8sQfVAfD3ZwlftY-61" value="生成统筹任务书" style="rounded=1;whiteSpace=wrap;html=1;absoluteArcSize=1;arcSize=14;strokeWidth=2;" vertex="1" parent="1">
          <mxGeometry x="131" y="1426" width="110" height="30" as="geometry"/>
        </mxCell>
        <mxCell id="m3K4q8sQfVAfD3ZwlftY-62" value="下发任务书" style="rounded=1;whiteSpace=wrap;html=1;absoluteArcSize=1;arcSize=14;strokeWidth=2;" vertex="1" parent="1">
          <mxGeometry x="131" y="1490" width="110" height="30" as="geometry"/>
        </mxCell>
        <mxCell id="m3K4q8sQfVAfD3ZwlftY-63" style="edgeStyle=orthogonalEdgeStyle;rounded=0;orthogonalLoop=1;jettySize=auto;html=1;entryX=1;entryY=0.5;entryDx=0;entryDy=0;exitX=0.5;exitY=0;exitDx=0;exitDy=0;" edge="1" parent="1" source="m3K4q8sQfVAfD3ZwlftY-64" target="m3K4q8sQfVAfD3ZwlftY-56">
          <mxGeometry relative="1" as="geometry">
            <mxPoint x="550.5" y="1472.5" as="sourcePoint"/>
          </mxGeometry>
        </mxCell>
        <mxCell id="m3K4q8sQfVAfD3ZwlftY-64" value="修改任务书" style="rounded=1;whiteSpace=wrap;html=1;absoluteArcSize=1;arcSize=14;strokeWidth=2;" vertex="1" parent="1">
          <mxGeometry x="255" y="1370" width="110" height="30" as="geometry"/>
        </mxCell>
        <mxCell id="m3K4q8sQfVAfD3ZwlftY-65" value="" style="edgeStyle=orthogonalEdgeStyle;rounded=0;orthogonalLoop=1;jettySize=auto;html=1;" edge="1" parent="1" source="m3K4q8sQfVAfD3ZwlftY-67" target="m3K4q8sQfVAfD3ZwlftY-68">
          <mxGeometry relative="1" as="geometry"/>
        </mxCell>
        <mxCell id="m3K4q8sQfVAfD3ZwlftY-66" value="不通过" style="text;html=1;resizable=0;points=[];align=center;verticalAlign=middle;labelBackgroundColor=#ffffff;" vertex="1" connectable="0" parent="m3K4q8sQfVAfD3ZwlftY-65">
          <mxGeometry x="-0.3333" y="-2" relative="1" as="geometry">
            <mxPoint as="offset"/>
          </mxGeometry>
        </mxCell>
        <mxCell id="m3K4q8sQfVAfD3ZwlftY-67" value="审核&lt;br&gt;(会议部经理)" style="strokeWidth=2;html=1;shape=mxgraph.flowchart.decision;whiteSpace=wrap;" vertex="1" parent="1">
          <mxGeometry x="146" y="1052.5" width="80" height="80" as="geometry"/>
        </mxCell>
        <mxCell id="m3K4q8sQfVAfD3ZwlftY-68" value="结束" style="strokeWidth=2;html=1;shape=mxgraph.flowchart.terminator;whiteSpace=wrap;" vertex="1" parent="1">
          <mxGeometry x="306" y="1072.5" width="80" height="40" as="geometry"/>
        </mxCell>
        <mxCell id="m3K4q8sQfVAfD3ZwlftY-69" value="审核" style="strokeWidth=2;html=1;shape=mxgraph.flowchart.decision;whiteSpace=wrap;" vertex="1" parent="1">
          <mxGeometry x="499.5" y="636.5" width="71" height="71" as="geometry"/>
        </mxCell>
        <mxCell id="m3K4q8sQfVAfD3ZwlftY-70" value="" style="edgeStyle=orthogonalEdgeStyle;rounded=0;orthogonalLoop=1;jettySize=auto;html=1;" edge="1" parent="1" source="m3K4q8sQfVAfD3ZwlftY-71" target="m3K4q8sQfVAfD3ZwlftY-73">
          <mxGeometry relative="1" as="geometry"/>
        </mxCell>
        <mxCell id="m3K4q8sQfVAfD3ZwlftY-71" value="&lt;font style=&quot;font-size: 12px&quot;&gt;记录收款&lt;br&gt;[&lt;span style=&quot;background-color: rgb(255 , 255 , 255) ; color: rgb(51 , 51 , 51) ; font-family: &amp;#34;open sans&amp;#34; , &amp;#34;helvetica neue&amp;#34; , &amp;#34;helvetica&amp;#34; , &amp;#34;arial&amp;#34; , sans-serif&quot;&gt;台账]&lt;/span&gt;&lt;/font&gt;" style="rounded=1;whiteSpace=wrap;html=1;absoluteArcSize=1;arcSize=14;strokeWidth=2;" vertex="1" parent="1">
          <mxGeometry x="66" y="1670" width="110" height="50" as="geometry"/>
        </mxCell>
        <mxCell id="m3K4q8sQfVAfD3ZwlftY-72" value="" style="edgeStyle=orthogonalEdgeStyle;rounded=0;orthogonalLoop=1;jettySize=auto;html=1;" edge="1" parent="1" source="m3K4q8sQfVAfD3ZwlftY-73" target="m3K4q8sQfVAfD3ZwlftY-75">
          <mxGeometry relative="1" as="geometry"/>
        </mxCell>
        <mxCell id="m3K4q8sQfVAfD3ZwlftY-73" value="分配到订单/押金&lt;br&gt;(统筹人)" style="rounded=1;whiteSpace=wrap;html=1;absoluteArcSize=1;arcSize=14;strokeWidth=2;" vertex="1" parent="1">
          <mxGeometry x="211" y="1670" width="110" height="50" as="geometry"/>
        </mxCell>
        <mxCell id="m3K4q8sQfVAfD3ZwlftY-74" value="" style="edgeStyle=orthogonalEdgeStyle;rounded=0;orthogonalLoop=1;jettySize=auto;html=1;" edge="1" parent="1" source="m3K4q8sQfVAfD3ZwlftY-75" target="m3K4q8sQfVAfD3ZwlftY-77">
          <mxGeometry relative="1" as="geometry"/>
        </mxCell>
        <mxCell id="m3K4q8sQfVAfD3ZwlftY-75" value="申请发票&lt;br&gt;收到" style="rounded=1;whiteSpace=wrap;html=1;absoluteArcSize=1;arcSize=14;strokeWidth=2;" vertex="1" parent="1">
          <mxGeometry x="356" y="1670" width="110" height="50" as="geometry"/>
        </mxCell>
        <mxCell id="m3K4q8sQfVAfD3ZwlftY-76" value="" style="edgeStyle=orthogonalEdgeStyle;rounded=0;orthogonalLoop=1;jettySize=auto;html=1;" edge="1" parent="1" source="m3K4q8sQfVAfD3ZwlftY-77" target="m3K4q8sQfVAfD3ZwlftY-79">
          <mxGeometry relative="1" as="geometry"/>
        </mxCell>
        <mxCell id="m3K4q8sQfVAfD3ZwlftY-77" value="会议部经理审核" style="rounded=1;whiteSpace=wrap;html=1;absoluteArcSize=1;arcSize=14;strokeWidth=2;" vertex="1" parent="1">
          <mxGeometry x="501" y="1670" width="110" height="50" as="geometry"/>
        </mxCell>
        <mxCell id="m3K4q8sQfVAfD3ZwlftY-78" value="" style="edgeStyle=orthogonalEdgeStyle;rounded=0;orthogonalLoop=1;jettySize=auto;html=1;" edge="1" parent="1" source="m3K4q8sQfVAfD3ZwlftY-79" target="m3K4q8sQfVAfD3ZwlftY-81">
          <mxGeometry relative="1" as="geometry">
            <mxPoint x="466" y="1785.166666666667" as="targetPoint"/>
          </mxGeometry>
        </mxCell>
        <mxCell id="m3K4q8sQfVAfD3ZwlftY-79" value="财务审核" style="rounded=1;whiteSpace=wrap;html=1;absoluteArcSize=1;arcSize=14;strokeWidth=2;" vertex="1" parent="1">
          <mxGeometry x="501" y="1760" width="110" height="50" as="geometry"/>
        </mxCell>
        <mxCell id="m3K4q8sQfVAfD3ZwlftY-80" value="" style="edgeStyle=orthogonalEdgeStyle;rounded=0;orthogonalLoop=1;jettySize=auto;html=1;" edge="1" parent="1" source="m3K4q8sQfVAfD3ZwlftY-81" target="m3K4q8sQfVAfD3ZwlftY-82">
          <mxGeometry relative="1" as="geometry"/>
        </mxCell>
        <mxCell id="m3K4q8sQfVAfD3ZwlftY-81" value="财务开具" style="rounded=1;whiteSpace=wrap;html=1;absoluteArcSize=1;arcSize=14;strokeWidth=2;" vertex="1" parent="1">
          <mxGeometry x="355.5" y="1760" width="110" height="50" as="geometry"/>
        </mxCell>
        <mxCell id="m3K4q8sQfVAfD3ZwlftY-82" value="通知申请人" style="rounded=1;whiteSpace=wrap;html=1;absoluteArcSize=1;arcSize=14;strokeWidth=2;" vertex="1" parent="1">
          <mxGeometry x="210.5" y="1760" width="110" height="50" as="geometry"/>
        </mxCell>
        <mxCell id="m3K4q8sQfVAfD3ZwlftY-83" value="" style="edgeStyle=orthogonalEdgeStyle;rounded=0;orthogonalLoop=1;jettySize=auto;html=1;" edge="1" parent="1" source="m3K4q8sQfVAfD3ZwlftY-84" target="m3K4q8sQfVAfD3ZwlftY-86">
          <mxGeometry relative="1" as="geometry"/>
        </mxCell>
        <mxCell id="m3K4q8sQfVAfD3ZwlftY-84" value="创建押金项" style="rounded=1;whiteSpace=wrap;html=1;absoluteArcSize=1;arcSize=14;strokeWidth=2;" vertex="1" parent="1">
          <mxGeometry x="20" y="1970" width="110" height="50" as="geometry"/>
        </mxCell>
        <mxCell id="m3K4q8sQfVAfD3ZwlftY-85" value="" style="edgeStyle=orthogonalEdgeStyle;rounded=0;orthogonalLoop=1;jettySize=auto;html=1;" edge="1" parent="1" source="m3K4q8sQfVAfD3ZwlftY-86" target="m3K4q8sQfVAfD3ZwlftY-88">
          <mxGeometry relative="1" as="geometry"/>
        </mxCell>
        <mxCell id="m3K4q8sQfVAfD3ZwlftY-86" value="收取押金" style="rounded=1;whiteSpace=wrap;html=1;absoluteArcSize=1;arcSize=14;strokeWidth=2;" vertex="1" parent="1">
          <mxGeometry x="165" y="1970" width="110" height="50" as="geometry"/>
        </mxCell>
        <mxCell id="m3K4q8sQfVAfD3ZwlftY-87" value="" style="edgeStyle=orthogonalEdgeStyle;rounded=0;orthogonalLoop=1;jettySize=auto;html=1;" edge="1" parent="1" source="m3K4q8sQfVAfD3ZwlftY-88" target="m3K4q8sQfVAfD3ZwlftY-90">
          <mxGeometry relative="1" as="geometry"/>
        </mxCell>
        <mxCell id="m3K4q8sQfVAfD3ZwlftY-88" value="申请押金退还&lt;br&gt;展会结算阶段" style="rounded=1;whiteSpace=wrap;html=1;absoluteArcSize=1;arcSize=14;strokeWidth=2;" vertex="1" parent="1">
          <mxGeometry x="310" y="1970" width="110" height="50" as="geometry"/>
        </mxCell>
        <mxCell id="m3K4q8sQfVAfD3ZwlftY-89" value="" style="edgeStyle=orthogonalEdgeStyle;rounded=0;orthogonalLoop=1;jettySize=auto;html=1;" edge="1" parent="1" source="m3K4q8sQfVAfD3ZwlftY-90" target="m3K4q8sQfVAfD3ZwlftY-91">
          <mxGeometry relative="1" as="geometry"/>
        </mxCell>
        <mxCell id="m3K4q8sQfVAfD3ZwlftY-90" value="OA审批&lt;br&gt;[线下]" style="rounded=1;whiteSpace=wrap;html=1;absoluteArcSize=1;arcSize=14;strokeWidth=2;" vertex="1" parent="1">
          <mxGeometry x="455" y="1970" width="110" height="50" as="geometry"/>
        </mxCell>
        <mxCell id="m3K4q8sQfVAfD3ZwlftY-91" value="财务退款" style="rounded=1;whiteSpace=wrap;html=1;absoluteArcSize=1;arcSize=14;strokeWidth=2;" vertex="1" parent="1">
          <mxGeometry x="600" y="1970" width="110" height="50" as="geometry"/>
        </mxCell>
        <mxCell id="m3K4q8sQfVAfD3ZwlftY-92" value="" style="edgeStyle=orthogonalEdgeStyle;rounded=0;orthogonalLoop=1;jettySize=auto;html=1;" edge="1" parent="1" source="m3K4q8sQfVAfD3ZwlftY-93" target="m3K4q8sQfVAfD3ZwlftY-94">
          <mxGeometry relative="1" as="geometry"/>
        </mxCell>
        <mxCell id="m3K4q8sQfVAfD3ZwlftY-93" value="成本填写" style="rounded=1;whiteSpace=wrap;html=1;absoluteArcSize=1;arcSize=14;strokeWidth=2;" vertex="1" parent="1">
          <mxGeometry x="20" y="2070" width="110" height="50" as="geometry"/>
        </mxCell>
        <mxCell id="m3K4q8sQfVAfD3ZwlftY-94" value="成本查看" style="rounded=1;whiteSpace=wrap;html=1;absoluteArcSize=1;arcSize=14;strokeWidth=2;" vertex="1" parent="1">
          <mxGeometry x="165" y="2070" width="110" height="50" as="geometry"/>
        </mxCell>
        <mxCell id="m3K4q8sQfVAfD3ZwlftY-95" value="" style="edgeStyle=orthogonalEdgeStyle;rounded=0;orthogonalLoop=1;jettySize=auto;html=1;" edge="1" parent="1" source="m3K4q8sQfVAfD3ZwlftY-96" target="m3K4q8sQfVAfD3ZwlftY-98">
          <mxGeometry relative="1" as="geometry"/>
        </mxCell>
        <mxCell id="m3K4q8sQfVAfD3ZwlftY-96" value="广告订单" style="rounded=1;whiteSpace=wrap;html=1;absoluteArcSize=1;arcSize=14;strokeWidth=2;" vertex="1" parent="1">
          <mxGeometry x="54.5" y="2180" width="110" height="40" as="geometry"/>
        </mxCell>
        <mxCell id="m3K4q8sQfVAfD3ZwlftY-97" value="" style="edgeStyle=orthogonalEdgeStyle;rounded=0;orthogonalLoop=1;jettySize=auto;html=1;" edge="1" parent="1" source="m3K4q8sQfVAfD3ZwlftY-98" target="m3K4q8sQfVAfD3ZwlftY-100">
          <mxGeometry relative="1" as="geometry"/>
        </mxCell>
        <mxCell id="m3K4q8sQfVAfD3ZwlftY-98" value="订单明细" style="rounded=1;whiteSpace=wrap;html=1;absoluteArcSize=1;arcSize=14;strokeWidth=2;" vertex="1" parent="1">
          <mxGeometry x="54.5" y="2240" width="110" height="40" as="geometry"/>
        </mxCell>
        <mxCell id="m3K4q8sQfVAfD3ZwlftY-99" value="" style="edgeStyle=orthogonalEdgeStyle;rounded=0;orthogonalLoop=1;jettySize=auto;html=1;" edge="1" parent="1" source="m3K4q8sQfVAfD3ZwlftY-100" target="m3K4q8sQfVAfD3ZwlftY-118">
          <mxGeometry relative="1" as="geometry">
            <mxPoint x="352" y="2275" as="targetPoint"/>
          </mxGeometry>
        </mxCell>
        <mxCell id="m3K4q8sQfVAfD3ZwlftY-100" value="折扣" style="rounded=1;whiteSpace=wrap;html=1;absoluteArcSize=1;arcSize=14;strokeWidth=2;" vertex="1" parent="1">
          <mxGeometry x="54.999999999999886" y="2310" width="110" height="40" as="geometry"/>
        </mxCell>
        <mxCell id="m3K4q8sQfVAfD3ZwlftY-101" style="edgeStyle=orthogonalEdgeStyle;rounded=0;orthogonalLoop=1;jettySize=auto;html=1;entryX=0.5;entryY=1;entryDx=0;entryDy=0;exitX=1;exitY=0.5;exitDx=0;exitDy=0;" edge="1" parent="1" source="m3K4q8sQfVAfD3ZwlftY-102" target="m3K4q8sQfVAfD3ZwlftY-9">
          <mxGeometry relative="1" as="geometry"/>
        </mxCell>
        <mxCell id="m3K4q8sQfVAfD3ZwlftY-102" value="总监审批" style="rounded=1;whiteSpace=wrap;html=1;absoluteArcSize=1;arcSize=14;strokeWidth=2;" vertex="1" parent="1">
          <mxGeometry x="285" y="160" width="85" height="50" as="geometry"/>
        </mxCell>
        <mxCell id="m3K4q8sQfVAfD3ZwlftY-103" value="" style="edgeStyle=orthogonalEdgeStyle;rounded=0;orthogonalLoop=1;jettySize=auto;html=1;entryX=0;entryY=0.5;entryDx=0;entryDy=0;" edge="1" parent="1" source="m3K4q8sQfVAfD3ZwlftY-105" target="m3K4q8sQfVAfD3ZwlftY-107">
          <mxGeometry relative="1" as="geometry">
            <mxPoint x="600" y="789" as="targetPoint"/>
          </mxGeometry>
        </mxCell>
        <mxCell id="m3K4q8sQfVAfD3ZwlftY-104" value="有" style="text;html=1;resizable=0;points=[];align=center;verticalAlign=middle;labelBackgroundColor=#ffffff;" vertex="1" connectable="0" parent="m3K4q8sQfVAfD3ZwlftY-103">
          <mxGeometry x="-0.12" y="1" relative="1" as="geometry">
            <mxPoint as="offset"/>
          </mxGeometry>
        </mxCell>
        <mxCell id="m3K4q8sQfVAfD3ZwlftY-105" value="折扣" style="rhombus;whiteSpace=wrap;html=1;strokeWidth=2;" vertex="1" parent="1">
          <mxGeometry x="37.5" y="744" width="80" height="80" as="geometry"/>
        </mxCell>
        <mxCell id="m3K4q8sQfVAfD3ZwlftY-106" value="" style="edgeStyle=orthogonalEdgeStyle;rounded=0;orthogonalLoop=1;jettySize=auto;html=1;" edge="1" parent="1" source="m3K4q8sQfVAfD3ZwlftY-108" target="m3K4q8sQfVAfD3ZwlftY-37">
          <mxGeometry relative="1" as="geometry"/>
        </mxCell>
        <mxCell id="m3K4q8sQfVAfD3ZwlftY-107" value="部门经理审核&lt;br&gt;[移动端]" style="rounded=1;whiteSpace=wrap;html=1;absoluteArcSize=1;arcSize=14;strokeWidth=2;" vertex="1" parent="1">
          <mxGeometry x="251.5" y="759" width="110" height="50" as="geometry"/>
        </mxCell>
        <mxCell id="m3K4q8sQfVAfD3ZwlftY-108" value="总监审核&lt;br&gt;[移动端]" style="rounded=1;whiteSpace=wrap;html=1;absoluteArcSize=1;arcSize=14;strokeWidth=2;" vertex="1" parent="1">
          <mxGeometry x="480" y="759" width="110" height="50" as="geometry"/>
        </mxCell>
        <mxCell id="m3K4q8sQfVAfD3ZwlftY-109" value="" style="edgeStyle=orthogonalEdgeStyle;rounded=0;orthogonalLoop=1;jettySize=auto;html=1;exitX=1;exitY=0.5;exitDx=0;exitDy=0;" edge="1" parent="1" source="m3K4q8sQfVAfD3ZwlftY-107" target="m3K4q8sQfVAfD3ZwlftY-108">
          <mxGeometry relative="1" as="geometry">
            <mxPoint x="590" y="824" as="sourcePoint"/>
            <mxPoint x="408" y="759" as="targetPoint"/>
          </mxGeometry>
        </mxCell>
        <mxCell id="m3K4q8sQfVAfD3ZwlftY-110" value="" style="edgeStyle=orthogonalEdgeStyle;rounded=0;orthogonalLoop=1;jettySize=auto;html=1;" edge="1" parent="1" source="m3K4q8sQfVAfD3ZwlftY-111" target="m3K4q8sQfVAfD3ZwlftY-113">
          <mxGeometry relative="1" as="geometry"/>
        </mxCell>
        <mxCell id="m3K4q8sQfVAfD3ZwlftY-111" value="面积填写" style="rounded=1;whiteSpace=wrap;html=1;absoluteArcSize=1;arcSize=14;strokeWidth=2;" vertex="1" parent="1">
          <mxGeometry x="267.5" y="1173" width="67" height="40" as="geometry"/>
        </mxCell>
        <mxCell id="m3K4q8sQfVAfD3ZwlftY-112" value="" style="edgeStyle=orthogonalEdgeStyle;rounded=0;orthogonalLoop=1;jettySize=auto;html=1;" edge="1" parent="1" source="m3K4q8sQfVAfD3ZwlftY-113" target="m3K4q8sQfVAfD3ZwlftY-114">
          <mxGeometry relative="1" as="geometry"/>
        </mxCell>
        <mxCell id="m3K4q8sQfVAfD3ZwlftY-113" value="面积复核&lt;br&gt;[会议结束后]" style="rounded=1;whiteSpace=wrap;html=1;absoluteArcSize=1;arcSize=14;strokeWidth=2;" vertex="1" parent="1">
          <mxGeometry x="361" y="1173" width="90" height="40" as="geometry"/>
        </mxCell>
        <mxCell id="m3K4q8sQfVAfD3ZwlftY-114" value="面积审核&lt;br&gt;(部门经理)" style="rounded=1;whiteSpace=wrap;html=1;absoluteArcSize=1;arcSize=14;strokeWidth=2;" vertex="1" parent="1">
          <mxGeometry x="477.5" y="1173" width="67" height="40" as="geometry"/>
        </mxCell>
        <mxCell id="m3K4q8sQfVAfD3ZwlftY-115" value="" style="edgeStyle=orthogonalEdgeStyle;rounded=0;orthogonalLoop=1;jettySize=auto;html=1;" edge="1" parent="1" source="m3K4q8sQfVAfD3ZwlftY-52" target="m3K4q8sQfVAfD3ZwlftY-111">
          <mxGeometry relative="1" as="geometry">
            <mxPoint x="241" y="1197.5" as="sourcePoint"/>
            <mxPoint x="343" y="1372.5" as="targetPoint"/>
          </mxGeometry>
        </mxCell>
        <mxCell id="m3K4q8sQfVAfD3ZwlftY-116" value="" style="edgeStyle=orthogonalEdgeStyle;rounded=0;orthogonalLoop=1;jettySize=auto;html=1;" edge="1" parent="1" source="m3K4q8sQfVAfD3ZwlftY-121" target="m3K4q8sQfVAfD3ZwlftY-123">
          <mxGeometry relative="1" as="geometry"/>
        </mxCell>
        <mxCell id="m3K4q8sQfVAfD3ZwlftY-117" value="" style="edgeStyle=orthogonalEdgeStyle;rounded=0;orthogonalLoop=1;jettySize=auto;html=1;entryX=0.5;entryY=0;entryDx=0;entryDy=0;" edge="1" parent="1" source="m3K4q8sQfVAfD3ZwlftY-118" target="m3K4q8sQfVAfD3ZwlftY-127">
          <mxGeometry relative="1" as="geometry">
            <mxPoint x="722" y="2386" as="sourcePoint"/>
          </mxGeometry>
        </mxCell>
        <mxCell id="m3K4q8sQfVAfD3ZwlftY-118" value="生成合同" style="rounded=1;whiteSpace=wrap;html=1;absoluteArcSize=1;arcSize=14;strokeWidth=2;" vertex="1" parent="1">
          <mxGeometry x="54.499999999999886" y="2380" width="110" height="40" as="geometry"/>
        </mxCell>
        <mxCell id="m3K4q8sQfVAfD3ZwlftY-119" value="" style="edgeStyle=orthogonalEdgeStyle;rounded=0;orthogonalLoop=1;jettySize=auto;html=1;" edge="1" parent="1" source="m3K4q8sQfVAfD3ZwlftY-127" target="m3K4q8sQfVAfD3ZwlftY-121">
          <mxGeometry relative="1" as="geometry"/>
        </mxCell>
        <mxCell id="m3K4q8sQfVAfD3ZwlftY-120" value="无" style="text;html=1;resizable=0;points=[];align=center;verticalAlign=middle;labelBackgroundColor=#ffffff;" vertex="1" connectable="0" parent="m3K4q8sQfVAfD3ZwlftY-119">
          <mxGeometry x="0.021" y="-1" relative="1" as="geometry">
            <mxPoint x="2.166666666666591" as="offset"/>
          </mxGeometry>
        </mxCell>
        <mxCell id="m3K4q8sQfVAfD3ZwlftY-121" value="生成应收款" style="rounded=1;whiteSpace=wrap;html=1;absoluteArcSize=1;arcSize=14;strokeWidth=2;" vertex="1" parent="1">
          <mxGeometry x="54.499999999999886" y="2530" width="110" height="40" as="geometry"/>
        </mxCell>
        <mxCell id="m3K4q8sQfVAfD3ZwlftY-122" value="" style="edgeStyle=orthogonalEdgeStyle;rounded=0;orthogonalLoop=1;jettySize=auto;html=1;" edge="1" parent="1" source="m3K4q8sQfVAfD3ZwlftY-123" target="m3K4q8sQfVAfD3ZwlftY-124">
          <mxGeometry relative="1" as="geometry"/>
        </mxCell>
        <mxCell id="m3K4q8sQfVAfD3ZwlftY-123" value="生成呈批件&lt;br&gt;后续由OA审核" style="rounded=1;whiteSpace=wrap;html=1;absoluteArcSize=1;arcSize=14;strokeWidth=2;" vertex="1" parent="1">
          <mxGeometry x="54.499999999999886" y="2600" width="110" height="40" as="geometry"/>
        </mxCell>
        <mxCell id="m3K4q8sQfVAfD3ZwlftY-124" value="审核" style="strokeWidth=2;html=1;shape=mxgraph.flowchart.decision;whiteSpace=wrap;" vertex="1" parent="1">
          <mxGeometry x="80.16666666666652" y="2670" width="60" height="60" as="geometry"/>
        </mxCell>
        <mxCell id="m3K4q8sQfVAfD3ZwlftY-125" value="" style="edgeStyle=orthogonalEdgeStyle;rounded=0;orthogonalLoop=1;jettySize=auto;html=1;entryX=0;entryY=0.5;entryDx=0;entryDy=0;" edge="1" parent="1" source="m3K4q8sQfVAfD3ZwlftY-127" target="m3K4q8sQfVAfD3ZwlftY-129">
          <mxGeometry relative="1" as="geometry">
            <mxPoint x="591.5" y="2630" as="targetPoint"/>
          </mxGeometry>
        </mxCell>
        <mxCell id="m3K4q8sQfVAfD3ZwlftY-126" value="有" style="text;html=1;resizable=0;points=[];align=center;verticalAlign=middle;labelBackgroundColor=#ffffff;" vertex="1" connectable="0" parent="m3K4q8sQfVAfD3ZwlftY-125">
          <mxGeometry x="-0.12" y="1" relative="1" as="geometry">
            <mxPoint x="-54.33333333333337" as="offset"/>
          </mxGeometry>
        </mxCell>
        <mxCell id="m3K4q8sQfVAfD3ZwlftY-127" value="折扣" style="rhombus;whiteSpace=wrap;html=1;strokeWidth=2;" vertex="1" parent="1">
          <mxGeometry x="80.16666666666652" y="2440" width="60" height="60" as="geometry"/>
        </mxCell>
        <mxCell id="m3K4q8sQfVAfD3ZwlftY-128" value="" style="edgeStyle=orthogonalEdgeStyle;rounded=0;orthogonalLoop=1;jettySize=auto;html=1;entryX=1;entryY=0.5;entryDx=0;entryDy=0;" edge="1" parent="1" source="m3K4q8sQfVAfD3ZwlftY-130" target="m3K4q8sQfVAfD3ZwlftY-121">
          <mxGeometry relative="1" as="geometry"/>
        </mxCell>
        <mxCell id="m3K4q8sQfVAfD3ZwlftY-129" value="部门经理审核" style="rounded=1;whiteSpace=wrap;html=1;absoluteArcSize=1;arcSize=14;strokeWidth=2;" vertex="1" parent="1">
          <mxGeometry x="203" y="2450" width="110" height="40" as="geometry"/>
        </mxCell>
        <mxCell id="m3K4q8sQfVAfD3ZwlftY-130" value="总监审核" style="rounded=1;whiteSpace=wrap;html=1;absoluteArcSize=1;arcSize=14;strokeWidth=2;" vertex="1" parent="1">
          <mxGeometry x="203" y="2530" width="110" height="40" as="geometry"/>
        </mxCell>
        <mxCell id="m3K4q8sQfVAfD3ZwlftY-131" value="" style="edgeStyle=orthogonalEdgeStyle;rounded=0;orthogonalLoop=1;jettySize=auto;html=1;" edge="1" parent="1" source="m3K4q8sQfVAfD3ZwlftY-129" target="m3K4q8sQfVAfD3ZwlftY-130">
          <mxGeometry relative="1" as="geometry">
            <mxPoint x="581.5" y="2665" as="sourcePoint"/>
            <mxPoint x="399.5" y="2600" as="targetPoint"/>
          </mxGeometry>
        </mxCell>
        <mxCell id="m3K4q8sQfVAfD3ZwlftY-132" value="" style="edgeStyle=orthogonalEdgeStyle;rounded=0;orthogonalLoop=1;jettySize=auto;html=1;entryX=0.5;entryY=0;entryDx=0;entryDy=0;" edge="1" parent="1" source="m3K4q8sQfVAfD3ZwlftY-133" target="m3K4q8sQfVAfD3ZwlftY-140">
          <mxGeometry relative="1" as="geometry">
            <mxPoint x="1033" y="2186" as="sourcePoint"/>
          </mxGeometry>
        </mxCell>
        <mxCell id="m3K4q8sQfVAfD3ZwlftY-133" value="生成合同" style="rounded=1;whiteSpace=wrap;html=1;absoluteArcSize=1;arcSize=14;strokeWidth=2;" vertex="1" parent="1">
          <mxGeometry x="361.4999999999999" y="2180" width="110" height="40" as="geometry"/>
        </mxCell>
        <mxCell id="m3K4q8sQfVAfD3ZwlftY-134" value="" style="edgeStyle=orthogonalEdgeStyle;rounded=0;orthogonalLoop=1;jettySize=auto;html=1;" edge="1" parent="1" source="m3K4q8sQfVAfD3ZwlftY-147" target="m3K4q8sQfVAfD3ZwlftY-136">
          <mxGeometry relative="1" as="geometry"/>
        </mxCell>
        <mxCell id="m3K4q8sQfVAfD3ZwlftY-135" value="通过" style="text;html=1;resizable=0;points=[];align=center;verticalAlign=middle;labelBackgroundColor=#ffffff;" vertex="1" connectable="0" parent="m3K4q8sQfVAfD3ZwlftY-134">
          <mxGeometry x="-0.3514" relative="1" as="geometry">
            <mxPoint as="offset"/>
          </mxGeometry>
        </mxCell>
        <mxCell id="m3K4q8sQfVAfD3ZwlftY-136" value="生成应收款" style="rounded=1;whiteSpace=wrap;html=1;absoluteArcSize=1;arcSize=14;strokeWidth=2;" vertex="1" parent="1">
          <mxGeometry x="361.9999999999999" y="2520" width="110" height="40" as="geometry"/>
        </mxCell>
        <mxCell id="m3K4q8sQfVAfD3ZwlftY-137" value="" style="edgeStyle=orthogonalEdgeStyle;rounded=0;orthogonalLoop=1;jettySize=auto;html=1;" edge="1" parent="1" source="m3K4q8sQfVAfD3ZwlftY-140" target="m3K4q8sQfVAfD3ZwlftY-153">
          <mxGeometry relative="1" as="geometry">
            <mxPoint x="514.5" y="2270" as="targetPoint"/>
          </mxGeometry>
        </mxCell>
        <mxCell id="m3K4q8sQfVAfD3ZwlftY-138" value="有" style="text;html=1;resizable=0;points=[];align=center;verticalAlign=middle;labelBackgroundColor=#ffffff;" vertex="1" connectable="0" parent="m3K4q8sQfVAfD3ZwlftY-137">
          <mxGeometry x="-0.12" y="1" relative="1" as="geometry">
            <mxPoint x="-61.666666666666856" as="offset"/>
          </mxGeometry>
        </mxCell>
        <mxCell id="m3K4q8sQfVAfD3ZwlftY-139" value="有" style="text;html=1;resizable=0;points=[];align=center;verticalAlign=middle;labelBackgroundColor=#ffffff;" vertex="1" connectable="0" parent="m3K4q8sQfVAfD3ZwlftY-137">
          <mxGeometry x="-0.4545" y="-3" relative="1" as="geometry">
            <mxPoint x="-1" y="-13" as="offset"/>
          </mxGeometry>
        </mxCell>
        <mxCell id="m3K4q8sQfVAfD3ZwlftY-140" value="折扣" style="rhombus;whiteSpace=wrap;html=1;strokeWidth=2;" vertex="1" parent="1">
          <mxGeometry x="386.5" y="2240" width="60" height="60" as="geometry"/>
        </mxCell>
        <mxCell id="m3K4q8sQfVAfD3ZwlftY-141" value="" style="edgeStyle=orthogonalEdgeStyle;rounded=0;orthogonalLoop=1;jettySize=auto;html=1;entryX=0.5;entryY=0;entryDx=0;entryDy=0;entryPerimeter=0;" edge="1" parent="1" source="m3K4q8sQfVAfD3ZwlftY-156" target="m3K4q8sQfVAfD3ZwlftY-147">
          <mxGeometry relative="1" as="geometry">
            <mxPoint x="443.5" y="2354" as="targetPoint"/>
            <mxPoint x="514" y="2375" as="sourcePoint"/>
          </mxGeometry>
        </mxCell>
        <mxCell id="m3K4q8sQfVAfD3ZwlftY-142" value="通过" style="text;html=1;resizable=0;points=[];align=center;verticalAlign=middle;labelBackgroundColor=#ffffff;" vertex="1" connectable="0" parent="m3K4q8sQfVAfD3ZwlftY-141">
          <mxGeometry x="-0.3636" relative="1" as="geometry">
            <mxPoint as="offset"/>
          </mxGeometry>
        </mxCell>
        <mxCell id="m3K4q8sQfVAfD3ZwlftY-143" value="" style="edgeStyle=orthogonalEdgeStyle;rounded=0;orthogonalLoop=1;jettySize=auto;html=1;entryX=0.5;entryY=0;entryDx=0;entryDy=0;entryPerimeter=0;" edge="1" parent="1" source="m3K4q8sQfVAfD3ZwlftY-153" target="m3K4q8sQfVAfD3ZwlftY-156">
          <mxGeometry relative="1" as="geometry">
            <mxPoint x="529" y="2290" as="sourcePoint"/>
            <mxPoint x="529.5" y="2355" as="targetPoint"/>
          </mxGeometry>
        </mxCell>
        <mxCell id="m3K4q8sQfVAfD3ZwlftY-144" value="通过" style="text;html=1;resizable=0;points=[];align=center;verticalAlign=middle;labelBackgroundColor=#ffffff;" vertex="1" connectable="0" parent="m3K4q8sQfVAfD3ZwlftY-143">
          <mxGeometry x="0.1111" y="-2" relative="1" as="geometry">
            <mxPoint x="4" y="-1" as="offset"/>
          </mxGeometry>
        </mxCell>
        <mxCell id="m3K4q8sQfVAfD3ZwlftY-145" style="edgeStyle=orthogonalEdgeStyle;rounded=0;orthogonalLoop=1;jettySize=auto;html=1;" edge="1" parent="1" source="m3K4q8sQfVAfD3ZwlftY-147" target="m3K4q8sQfVAfD3ZwlftY-150">
          <mxGeometry relative="1" as="geometry"/>
        </mxCell>
        <mxCell id="m3K4q8sQfVAfD3ZwlftY-146" value="不通过" style="text;html=1;resizable=0;points=[];align=center;verticalAlign=middle;labelBackgroundColor=#ffffff;" vertex="1" connectable="0" parent="m3K4q8sQfVAfD3ZwlftY-145">
          <mxGeometry x="0.0533" y="1" relative="1" as="geometry">
            <mxPoint x="9" y="1" as="offset"/>
          </mxGeometry>
        </mxCell>
        <mxCell id="m3K4q8sQfVAfD3ZwlftY-147" value="投管审核" style="strokeWidth=2;html=1;shape=mxgraph.flowchart.decision;whiteSpace=wrap;" vertex="1" parent="1">
          <mxGeometry x="381.5" y="2400" width="70" height="70" as="geometry"/>
        </mxCell>
        <mxCell id="m3K4q8sQfVAfD3ZwlftY-148" value="" style="edgeStyle=orthogonalEdgeStyle;rounded=0;orthogonalLoop=1;jettySize=auto;html=1;" edge="1" parent="1" source="m3K4q8sQfVAfD3ZwlftY-140" target="m3K4q8sQfVAfD3ZwlftY-147">
          <mxGeometry relative="1" as="geometry">
            <mxPoint x="420.5" y="2300" as="sourcePoint"/>
            <mxPoint x="420.5" y="2580" as="targetPoint"/>
          </mxGeometry>
        </mxCell>
        <mxCell id="m3K4q8sQfVAfD3ZwlftY-149" value="无" style="text;html=1;resizable=0;points=[];align=center;verticalAlign=middle;labelBackgroundColor=#ffffff;" vertex="1" connectable="0" parent="m3K4q8sQfVAfD3ZwlftY-148">
          <mxGeometry x="0.021" y="-1" relative="1" as="geometry">
            <mxPoint x="2.166666666666591" as="offset"/>
          </mxGeometry>
        </mxCell>
        <mxCell id="m3K4q8sQfVAfD3ZwlftY-150" value="结束" style="strokeWidth=2;html=1;shape=mxgraph.flowchart.terminator;whiteSpace=wrap;" vertex="1" parent="1">
          <mxGeometry x="608.5" y="2520" width="80" height="40" as="geometry"/>
        </mxCell>
        <mxCell id="m3K4q8sQfVAfD3ZwlftY-151" style="edgeStyle=orthogonalEdgeStyle;rounded=0;orthogonalLoop=1;jettySize=auto;html=1;" edge="1" parent="1" source="m3K4q8sQfVAfD3ZwlftY-153" target="m3K4q8sQfVAfD3ZwlftY-150">
          <mxGeometry relative="1" as="geometry"/>
        </mxCell>
        <mxCell id="m3K4q8sQfVAfD3ZwlftY-152" value="不通过" style="text;html=1;resizable=0;points=[];align=center;verticalAlign=middle;labelBackgroundColor=#ffffff;" vertex="1" connectable="0" parent="m3K4q8sQfVAfD3ZwlftY-151">
          <mxGeometry x="-0.7473" y="-4" relative="1" as="geometry">
            <mxPoint x="-6" y="-4" as="offset"/>
          </mxGeometry>
        </mxCell>
        <mxCell id="m3K4q8sQfVAfD3ZwlftY-153" value="部门经理&lt;br&gt;审核" style="strokeWidth=2;html=1;shape=mxgraph.flowchart.decision;whiteSpace=wrap;" vertex="1" parent="1">
          <mxGeometry x="501.5" y="2235" width="70" height="70" as="geometry"/>
        </mxCell>
        <mxCell id="m3K4q8sQfVAfD3ZwlftY-154" style="edgeStyle=orthogonalEdgeStyle;rounded=0;orthogonalLoop=1;jettySize=auto;html=1;" edge="1" parent="1" source="m3K4q8sQfVAfD3ZwlftY-156" target="m3K4q8sQfVAfD3ZwlftY-150">
          <mxGeometry relative="1" as="geometry"/>
        </mxCell>
        <mxCell id="m3K4q8sQfVAfD3ZwlftY-155" value="不通过" style="text;html=1;resizable=0;points=[];align=center;verticalAlign=middle;labelBackgroundColor=#ffffff;" vertex="1" connectable="0" parent="m3K4q8sQfVAfD3ZwlftY-154">
          <mxGeometry x="-0.5753" y="1" relative="1" as="geometry">
            <mxPoint x="-10" y="1" as="offset"/>
          </mxGeometry>
        </mxCell>
        <mxCell id="m3K4q8sQfVAfD3ZwlftY-156" value="总监审核" style="strokeWidth=2;html=1;shape=mxgraph.flowchart.decision;whiteSpace=wrap;" vertex="1" parent="1">
          <mxGeometry x="501.5" y="2340" width="70" height="70" as="geometry"/>
        </mxCell>
      </root>
    </mxGraphModel>
  </diagram>
</mxfile>
